<mxfile host="app.diagrams.net" modified="2023-05-30T12:52:05.123Z" agent="Mozilla/5.0 (Windows NT 10.0; Win64; x64) AppleWebKit/537.36 (KHTML, like Gecko) Chrome/113.0.0.0 Safari/537.36" etag="XK6LFjThcztDDBuco4FL" version="21.3.5" type="github">
  <diagram id="6IpWRTOvNhz4fQDFHxwE" name="Page-1">
    <mxGraphModel dx="3096" dy="1291" grid="1" gridSize="10" guides="0" tooltips="1" connect="1" arrows="1" fold="1" page="1" pageScale="1" pageWidth="850" pageHeight="1100" math="0" shadow="0">
      <root>
        <mxCell id="0" />
        <mxCell id="1" parent="0" />
        <mxCell id="fXu-zx2hqorw0dzWZYp2-2" value="&lt;b&gt;New requirements (Stackholders, CEO)&lt;/b&gt;" style="ellipse;whiteSpace=wrap;html=1;aspect=fixed;fillColor=#d5e8d4;strokeColor=#82b366;gradientColor=#97d077;shadow=1;" parent="1" vertex="1">
          <mxGeometry x="-450" y="120" width="180" height="180" as="geometry" />
        </mxCell>
        <mxCell id="fXu-zx2hqorw0dzWZYp2-5" value="Asana &lt;b&gt;(Development)&lt;/b&gt;" style="rounded=1;whiteSpace=wrap;html=1;fillColor=#f8cecc;strokeColor=#b85450;gradientColor=#ea6b66;strokeWidth=3;" parent="1" vertex="1">
          <mxGeometry x="-210" y="1240" width="250" height="110" as="geometry" />
        </mxCell>
        <mxCell id="JSEa2vaJHXwGFsyHtMpE-1" value="&lt;b&gt;Miro Board&lt;/b&gt; (Release planning)" style="rounded=1;whiteSpace=wrap;html=1;fillColor=#ffcd28;gradientColor=#ffa500;strokeColor=#d79b00;shadow=1;" parent="1" vertex="1">
          <mxGeometry x="-190" y="20" width="220" height="50" as="geometry" />
        </mxCell>
        <mxCell id="JSEa2vaJHXwGFsyHtMpE-2" value="Asana (&lt;b&gt;Managment&lt;/b&gt;)" style="rounded=1;whiteSpace=wrap;html=1;fillColor=#e6d0de;gradientColor=#d5739d;strokeColor=#996185;shadow=1;" parent="1" vertex="1">
          <mxGeometry x="-190" y="180" width="220" height="60" as="geometry" />
        </mxCell>
        <mxCell id="JSEa2vaJHXwGFsyHtMpE-3" value="" style="endArrow=classic;html=1;rounded=0;exitX=0.5;exitY=0;exitDx=0;exitDy=0;entryX=0;entryY=0.5;entryDx=0;entryDy=0;" parent="1" source="fXu-zx2hqorw0dzWZYp2-2" target="JSEa2vaJHXwGFsyHtMpE-1" edge="1">
          <mxGeometry width="50" height="50" relative="1" as="geometry">
            <mxPoint x="120" y="340" as="sourcePoint" />
            <mxPoint x="170" y="290" as="targetPoint" />
            <Array as="points">
              <mxPoint x="-360" y="45" />
            </Array>
          </mxGeometry>
        </mxCell>
        <mxCell id="JSEa2vaJHXwGFsyHtMpE-4" value="" style="endArrow=classic;startArrow=classic;html=1;rounded=0;entryX=0.5;entryY=1;entryDx=0;entryDy=0;exitX=0.5;exitY=0;exitDx=0;exitDy=0;" parent="1" edge="1">
          <mxGeometry width="50" height="50" relative="1" as="geometry">
            <mxPoint x="-82" y="180" as="sourcePoint" />
            <mxPoint x="-82" y="70" as="targetPoint" />
          </mxGeometry>
        </mxCell>
        <mxCell id="JSEa2vaJHXwGFsyHtMpE-5" value="" style="endArrow=classic;html=1;rounded=0;exitX=1;exitY=0.5;exitDx=0;exitDy=0;" parent="1" source="fXu-zx2hqorw0dzWZYp2-2" target="JSEa2vaJHXwGFsyHtMpE-2" edge="1">
          <mxGeometry width="50" height="50" relative="1" as="geometry">
            <mxPoint x="120" y="290" as="sourcePoint" />
            <mxPoint x="-230" y="210" as="targetPoint" />
          </mxGeometry>
        </mxCell>
        <mxCell id="JSEa2vaJHXwGFsyHtMpE-6" value="&lt;b&gt;Create Epic&lt;/b&gt; - each epic is a new feature from Miro Release scope. Each Epic relates with Milestone from dependencies&amp;nbsp;" style="rounded=0;whiteSpace=wrap;html=1;shadow=1;" parent="1" vertex="1">
          <mxGeometry x="-211" y="490" width="270" height="90" as="geometry" />
        </mxCell>
        <mxCell id="JSEa2vaJHXwGFsyHtMpE-8" value="PM splits&amp;nbsp;&amp;nbsp;&lt;b&gt;Epic &lt;/b&gt;from related task to each team if&amp;nbsp;needed with using Asana dependencies" style="rounded=0;whiteSpace=wrap;html=1;shadow=1;" parent="1" vertex="1">
          <mxGeometry x="-210" y="640" width="270" height="80" as="geometry" />
        </mxCell>
        <mxCell id="JSEa2vaJHXwGFsyHtMpE-9" value="&lt;b&gt;Create Release Milestone&lt;/b&gt; (each milestone consist of the Release scope of work from Miro [each feature from Milestone is Epic])" style="rounded=0;whiteSpace=wrap;html=1;shadow=1;" parent="1" vertex="1">
          <mxGeometry x="-180" y="320" width="210" height="89" as="geometry" />
        </mxCell>
        <mxCell id="JSEa2vaJHXwGFsyHtMpE-10" value="" style="endArrow=classic;html=1;rounded=0;exitX=0.5;exitY=1;exitDx=0;exitDy=0;" parent="1" edge="1">
          <mxGeometry width="50" height="50" relative="1" as="geometry">
            <mxPoint x="-82" y="240" as="sourcePoint" />
            <mxPoint x="-82" y="320" as="targetPoint" />
          </mxGeometry>
        </mxCell>
        <mxCell id="JSEa2vaJHXwGFsyHtMpE-11" value="" style="endArrow=classic;html=1;rounded=0;exitX=0.459;exitY=0.99;exitDx=0;exitDy=0;exitPerimeter=0;" parent="1" source="JSEa2vaJHXwGFsyHtMpE-9" edge="1">
          <mxGeometry width="50" height="50" relative="1" as="geometry">
            <mxPoint x="80" y="480" as="sourcePoint" />
            <mxPoint x="-84" y="490" as="targetPoint" />
          </mxGeometry>
        </mxCell>
        <mxCell id="-H-TBqle4YXtb74q-G5v-2" value="Stackholder" style="text;html=1;align=center;verticalAlign=middle;resizable=0;points=[];autosize=1;strokeColor=none;fillColor=none;fontStyle=1" vertex="1" parent="1">
          <mxGeometry x="-316" y="563" width="90" height="30" as="geometry" />
        </mxCell>
        <mxCell id="-H-TBqle4YXtb74q-G5v-8" value="Actor" style="shape=umlActor;verticalLabelPosition=bottom;verticalAlign=top;html=1;outlineConnect=0;editable=1;movable=1;resizable=1;rotatable=1;deletable=1;locked=0;connectable=1;comic=0;strokeColor=#36393d;fillColor=#ffcccc;overflow=hidden;noLabel=1;" vertex="1" parent="1">
          <mxGeometry x="-262" y="335" width="30" height="60" as="geometry" />
        </mxCell>
        <mxCell id="-H-TBqle4YXtb74q-G5v-9" value="Actor" style="shape=umlActor;verticalLabelPosition=bottom;verticalAlign=top;html=1;outlineConnect=0;overflow=hidden;noLabel=1;fillColor=#cce5ff;strokeColor=#36393d;" vertex="1" parent="1">
          <mxGeometry x="-286" y="500" width="30" height="60" as="geometry" />
        </mxCell>
        <mxCell id="-H-TBqle4YXtb74q-G5v-10" value="Actor" style="shape=umlActor;verticalLabelPosition=bottom;verticalAlign=top;html=1;outlineConnect=0;noLabel=1;fillColor=#ffcccc;strokeColor=#36393d;" vertex="1" parent="1">
          <mxGeometry x="-282" y="650" width="30" height="60" as="geometry" />
        </mxCell>
        <mxCell id="-H-TBqle4YXtb74q-G5v-14" value="Project Manager" style="text;html=1;align=center;verticalAlign=middle;resizable=0;points=[];autosize=1;strokeColor=none;fillColor=none;fontStyle=1" vertex="1" parent="1">
          <mxGeometry x="-305" y="394" width="120" height="30" as="geometry" />
        </mxCell>
        <mxCell id="-H-TBqle4YXtb74q-G5v-16" value="Project Manager" style="text;html=1;align=center;verticalAlign=middle;resizable=0;points=[];autosize=1;strokeColor=none;fillColor=none;fontStyle=1" vertex="1" parent="1">
          <mxGeometry x="-325" y="712" width="120" height="30" as="geometry" />
        </mxCell>
        <mxCell id="-H-TBqle4YXtb74q-G5v-17" value="" style="endArrow=none;dashed=1;html=1;dashPattern=1 3;strokeWidth=2;rounded=0;entryX=0;entryY=0.5;entryDx=0;entryDy=0;" edge="1" parent="1" source="-H-TBqle4YXtb74q-G5v-8" target="JSEa2vaJHXwGFsyHtMpE-9">
          <mxGeometry width="50" height="50" relative="1" as="geometry">
            <mxPoint x="-390" y="530" as="sourcePoint" />
            <mxPoint x="-340" y="480" as="targetPoint" />
          </mxGeometry>
        </mxCell>
        <mxCell id="-H-TBqle4YXtb74q-G5v-20" value="" style="endArrow=none;dashed=1;html=1;dashPattern=1 3;strokeWidth=2;rounded=0;exitX=0.5;exitY=0.5;exitDx=0;exitDy=0;exitPerimeter=0;" edge="1" parent="1" source="-H-TBqle4YXtb74q-G5v-9">
          <mxGeometry width="50" height="50" relative="1" as="geometry">
            <mxPoint x="-240" y="580" as="sourcePoint" />
            <mxPoint x="-220" y="530" as="targetPoint" />
          </mxGeometry>
        </mxCell>
        <mxCell id="-H-TBqle4YXtb74q-G5v-27" value="" style="endArrow=none;dashed=1;html=1;dashPattern=1 3;strokeWidth=2;rounded=0;exitX=0.5;exitY=0.5;exitDx=0;exitDy=0;exitPerimeter=0;" edge="1" parent="1" source="-H-TBqle4YXtb74q-G5v-10">
          <mxGeometry width="50" height="50" relative="1" as="geometry">
            <mxPoint x="90" y="490" as="sourcePoint" />
            <mxPoint x="-190" y="680" as="targetPoint" />
          </mxGeometry>
        </mxCell>
        <mxCell id="-H-TBqle4YXtb74q-G5v-29" value="" style="endArrow=classic;html=1;rounded=0;exitX=0.5;exitY=1;exitDx=0;exitDy=0;entryX=0.5;entryY=0;entryDx=0;entryDy=0;" edge="1" parent="1">
          <mxGeometry width="50" height="50" relative="1" as="geometry">
            <mxPoint x="-82" y="580" as="sourcePoint" />
            <mxPoint x="-82" y="640" as="targetPoint" />
          </mxGeometry>
        </mxCell>
        <mxCell id="-H-TBqle4YXtb74q-G5v-31" value="Asana &lt;b&gt;(Illustrators)&lt;/b&gt;" style="rounded=1;whiteSpace=wrap;html=1;fillColor=#e6d0de;strokeColor=#996185;gradientColor=#d5739d;" vertex="1" parent="1">
          <mxGeometry x="-190" y="950" width="200" height="60" as="geometry" />
        </mxCell>
        <mxCell id="-H-TBqle4YXtb74q-G5v-32" value="Asana &lt;b&gt;(Animations)&lt;/b&gt;" style="rounded=1;whiteSpace=wrap;html=1;fillColor=#e6d0de;strokeColor=#996185;gradientColor=#d5739d;" vertex="1" parent="1">
          <mxGeometry x="60" y="900" width="200" height="60" as="geometry" />
        </mxCell>
        <mxCell id="-H-TBqle4YXtb74q-G5v-33" value="Asana &lt;b&gt;(Animators_Hub)&lt;/b&gt;" style="rounded=1;whiteSpace=wrap;html=1;fillColor=#e6d0de;strokeColor=#996185;gradientColor=#d5739d;" vertex="1" parent="1">
          <mxGeometry x="60" y="990" width="200" height="60" as="geometry" />
        </mxCell>
        <mxCell id="-H-TBqle4YXtb74q-G5v-34" value="Asana &lt;b&gt;(Game Design)&lt;/b&gt;" style="rounded=1;whiteSpace=wrap;html=1;fillColor=#e6d0de;strokeColor=#996185;gradientColor=#d5739d;" vertex="1" parent="1">
          <mxGeometry x="-370" y="840" width="200" height="60" as="geometry" />
        </mxCell>
        <mxCell id="-H-TBqle4YXtb74q-G5v-35" value="Asana &lt;b&gt;(Neostesia_translation)&lt;/b&gt;" style="rounded=1;whiteSpace=wrap;html=1;fillColor=#e6d0de;strokeColor=#996185;gradientColor=#d5739d;" vertex="1" parent="1">
          <mxGeometry x="-620" y="840" width="200" height="60" as="geometry" />
        </mxCell>
        <mxCell id="-H-TBqle4YXtb74q-G5v-36" value="Asana &lt;b&gt;(Sound)&lt;/b&gt;" style="rounded=1;whiteSpace=wrap;html=1;fillColor=#e6d0de;strokeColor=#996185;gradientColor=#d5739d;" vertex="1" parent="1">
          <mxGeometry x="200" y="780" width="200" height="60" as="geometry" />
        </mxCell>
        <mxCell id="-H-TBqle4YXtb74q-G5v-37" value="Asana &lt;b&gt;(Marketing)&lt;/b&gt;" style="rounded=1;whiteSpace=wrap;html=1;fillColor=#e6d0de;strokeColor=#996185;gradientColor=#d5739d;" vertex="1" parent="1">
          <mxGeometry x="-182" y="1490" width="200" height="60" as="geometry" />
        </mxCell>
        <mxCell id="-H-TBqle4YXtb74q-G5v-38" value="" style="endArrow=classic;html=1;rounded=0;" edge="1" parent="1">
          <mxGeometry width="50" height="50" relative="1" as="geometry">
            <mxPoint x="-131" y="720" as="sourcePoint" />
            <mxPoint x="-170" y="870" as="targetPoint" />
            <Array as="points">
              <mxPoint x="-131" y="870" />
            </Array>
          </mxGeometry>
        </mxCell>
        <mxCell id="-H-TBqle4YXtb74q-G5v-39" value="" style="endArrow=classic;html=1;rounded=0;entryX=0.646;entryY=0.014;entryDx=0;entryDy=0;entryPerimeter=0;" edge="1" parent="1" target="-H-TBqle4YXtb74q-G5v-31">
          <mxGeometry width="50" height="50" relative="1" as="geometry">
            <mxPoint x="-60" y="720" as="sourcePoint" />
            <mxPoint x="-60" y="940" as="targetPoint" />
          </mxGeometry>
        </mxCell>
        <mxCell id="-H-TBqle4YXtb74q-G5v-43" value="" style="endArrow=classic;startArrow=classic;html=1;rounded=0;" edge="1" parent="1" source="-H-TBqle4YXtb74q-G5v-33">
          <mxGeometry width="50" height="50" relative="1" as="geometry">
            <mxPoint x="160" y="969.2893218813452" as="sourcePoint" />
            <mxPoint x="160" y="960" as="targetPoint" />
          </mxGeometry>
        </mxCell>
        <mxCell id="-H-TBqle4YXtb74q-G5v-49" value="" style="endArrow=classic;html=1;rounded=0;entryX=0.854;entryY=1.058;entryDx=0;entryDy=0;entryPerimeter=0;exitX=1;exitY=0.5;exitDx=0;exitDy=0;dashed=1;" edge="1" parent="1" source="-H-TBqle4YXtb74q-G5v-33" target="-H-TBqle4YXtb74q-G5v-36">
          <mxGeometry relative="1" as="geometry">
            <mxPoint x="320" y="1090" as="sourcePoint" />
            <mxPoint x="420" y="1090" as="targetPoint" />
            <Array as="points">
              <mxPoint x="370" y="1020" />
            </Array>
          </mxGeometry>
        </mxCell>
        <mxCell id="-H-TBqle4YXtb74q-G5v-50" value="" style="shape=message;html=1;outlineConnect=0;" vertex="1" parent="-H-TBqle4YXtb74q-G5v-49">
          <mxGeometry width="20" height="14" relative="1" as="geometry">
            <mxPoint x="-10" y="-7" as="offset" />
          </mxGeometry>
        </mxCell>
        <mxCell id="-H-TBqle4YXtb74q-G5v-51" value="" style="endArrow=classic;html=1;rounded=0;entryX=0.679;entryY=1.024;entryDx=0;entryDy=0;entryPerimeter=0;dashed=1;" edge="1" parent="1" target="-H-TBqle4YXtb74q-G5v-36">
          <mxGeometry relative="1" as="geometry">
            <mxPoint x="260" y="950" as="sourcePoint" />
            <mxPoint x="360" y="950" as="targetPoint" />
            <Array as="points">
              <mxPoint x="336" y="950" />
            </Array>
          </mxGeometry>
        </mxCell>
        <mxCell id="-H-TBqle4YXtb74q-G5v-52" value="" style="shape=message;html=1;outlineConnect=0;" vertex="1" parent="-H-TBqle4YXtb74q-G5v-51">
          <mxGeometry width="20" height="14" relative="1" as="geometry">
            <mxPoint x="-10" y="-7" as="offset" />
          </mxGeometry>
        </mxCell>
        <mxCell id="-H-TBqle4YXtb74q-G5v-55" value="PM assigned task" style="text;html=1;strokeColor=none;fillColor=none;align=center;verticalAlign=middle;whiteSpace=wrap;rounded=0;fontStyle=2" vertex="1" parent="1">
          <mxGeometry x="387" y="970" width="60" height="30" as="geometry" />
        </mxCell>
        <mxCell id="-H-TBqle4YXtb74q-G5v-57" value="PM assigned task" style="text;html=1;strokeColor=none;fillColor=none;align=center;verticalAlign=middle;whiteSpace=wrap;rounded=0;fontStyle=2" vertex="1" parent="1">
          <mxGeometry x="270" y="910" width="60" height="30" as="geometry" />
        </mxCell>
        <mxCell id="-H-TBqle4YXtb74q-G5v-58" value="PM assigned task" style="text;html=1;strokeColor=none;fillColor=none;align=center;verticalAlign=middle;whiteSpace=wrap;rounded=0;fontStyle=2" vertex="1" parent="1">
          <mxGeometry x="-30" y="880" width="90" height="30" as="geometry" />
        </mxCell>
        <mxCell id="-H-TBqle4YXtb74q-G5v-59" value="" style="endArrow=classic;html=1;rounded=0;entryX=0;entryY=0.5;entryDx=0;entryDy=0;dashed=1;" edge="1" parent="1" target="-H-TBqle4YXtb74q-G5v-32">
          <mxGeometry relative="1" as="geometry">
            <mxPoint x="-10" y="951" as="sourcePoint" />
            <mxPoint x="440" y="1150" as="targetPoint" />
            <Array as="points">
              <mxPoint x="-10" y="930" />
            </Array>
          </mxGeometry>
        </mxCell>
        <mxCell id="-H-TBqle4YXtb74q-G5v-60" value="" style="shape=message;html=1;outlineConnect=0;strokeColor=default;" vertex="1" parent="-H-TBqle4YXtb74q-G5v-59">
          <mxGeometry width="20" height="14" relative="1" as="geometry">
            <mxPoint x="-10" y="-7" as="offset" />
          </mxGeometry>
        </mxCell>
        <mxCell id="-H-TBqle4YXtb74q-G5v-62" value="" style="endArrow=classic;html=1;rounded=0;exitX=1;exitY=0.5;exitDx=0;exitDy=0;entryX=1;entryY=0.5;entryDx=0;entryDy=0;" edge="1" parent="1" source="-H-TBqle4YXtb74q-G5v-36" target="fXu-zx2hqorw0dzWZYp2-5">
          <mxGeometry relative="1" as="geometry">
            <mxPoint x="240" y="1260" as="sourcePoint" />
            <mxPoint x="340" y="1260" as="targetPoint" />
            <Array as="points">
              <mxPoint x="520" y="810" />
              <mxPoint x="520" y="1295" />
            </Array>
          </mxGeometry>
        </mxCell>
        <mxCell id="-H-TBqle4YXtb74q-G5v-63" value="" style="shape=message;html=1;outlineConnect=0;" vertex="1" parent="-H-TBqle4YXtb74q-G5v-62">
          <mxGeometry width="20" height="14" relative="1" as="geometry">
            <mxPoint x="-10" y="-7" as="offset" />
          </mxGeometry>
        </mxCell>
        <mxCell id="-H-TBqle4YXtb74q-G5v-64" value="PM assigned task" style="text;html=1;strokeColor=none;fillColor=none;align=center;verticalAlign=middle;whiteSpace=wrap;rounded=0;fontStyle=3" vertex="1" parent="1">
          <mxGeometry x="440" y="1220" width="60" height="30" as="geometry" />
        </mxCell>
        <mxCell id="-H-TBqle4YXtb74q-G5v-65" value="" style="endArrow=classic;html=1;rounded=0;exitX=0;exitY=0.5;exitDx=0;exitDy=0;entryX=0;entryY=0.5;entryDx=0;entryDy=0;" edge="1" parent="1" source="-H-TBqle4YXtb74q-G5v-35" target="fXu-zx2hqorw0dzWZYp2-5">
          <mxGeometry relative="1" as="geometry">
            <mxPoint x="-500" y="1280" as="sourcePoint" />
            <mxPoint x="-400" y="1280" as="targetPoint" />
            <Array as="points">
              <mxPoint x="-720" y="870" />
              <mxPoint x="-720" y="1295" />
            </Array>
          </mxGeometry>
        </mxCell>
        <mxCell id="-H-TBqle4YXtb74q-G5v-66" value="" style="shape=message;html=1;outlineConnect=0;" vertex="1" parent="-H-TBqle4YXtb74q-G5v-65">
          <mxGeometry width="20" height="14" relative="1" as="geometry">
            <mxPoint x="-10" y="-7" as="offset" />
          </mxGeometry>
        </mxCell>
        <mxCell id="-H-TBqle4YXtb74q-G5v-164" value="" style="endArrow=classic;html=1;rounded=0;exitX=0.5;exitY=1;exitDx=0;exitDy=0;entryX=0.5;entryY=1;entryDx=0;entryDy=0;dashed=1;" edge="1" parent="1" source="-H-TBqle4YXtb74q-G5v-34" target="-H-TBqle4YXtb74q-G5v-35">
          <mxGeometry relative="1" as="geometry">
            <mxPoint x="-390" y="1080" as="sourcePoint" />
            <mxPoint x="-290" y="1080" as="targetPoint" />
            <Array as="points">
              <mxPoint x="-270" y="1000" />
              <mxPoint x="-520" y="1000" />
            </Array>
          </mxGeometry>
        </mxCell>
        <mxCell id="-H-TBqle4YXtb74q-G5v-165" value="" style="shape=message;html=1;outlineConnect=0;" vertex="1" parent="-H-TBqle4YXtb74q-G5v-164">
          <mxGeometry width="20" height="14" relative="1" as="geometry">
            <mxPoint x="-10" y="-7" as="offset" />
          </mxGeometry>
        </mxCell>
        <mxCell id="-H-TBqle4YXtb74q-G5v-166" value="PM assigned task" style="text;html=1;strokeColor=none;fillColor=none;align=center;verticalAlign=middle;whiteSpace=wrap;rounded=0;fontStyle=2" vertex="1" parent="1">
          <mxGeometry x="-440" y="960" width="90" height="30" as="geometry" />
        </mxCell>
        <mxCell id="-H-TBqle4YXtb74q-G5v-168" value="" style="endArrow=classic;html=1;rounded=0;entryX=1;entryY=0.25;entryDx=0;entryDy=0;" edge="1" parent="1" target="fXu-zx2hqorw0dzWZYp2-5">
          <mxGeometry relative="1" as="geometry">
            <mxPoint x="-85" y="1010" as="sourcePoint" />
            <mxPoint x="320" y="1230" as="targetPoint" />
            <Array as="points">
              <mxPoint x="-85" y="1110" />
              <mxPoint x="280" y="1110" />
              <mxPoint x="280" y="1268" />
            </Array>
          </mxGeometry>
        </mxCell>
        <mxCell id="-H-TBqle4YXtb74q-G5v-169" value="" style="shape=message;html=1;outlineConnect=0;" vertex="1" parent="-H-TBqle4YXtb74q-G5v-168">
          <mxGeometry width="20" height="14" relative="1" as="geometry">
            <mxPoint x="-10" y="-7" as="offset" />
          </mxGeometry>
        </mxCell>
        <mxCell id="-H-TBqle4YXtb74q-G5v-170" value="PM assigned task" style="text;html=1;strokeColor=none;fillColor=none;align=center;verticalAlign=middle;whiteSpace=wrap;rounded=0;fontStyle=3" vertex="1" parent="1">
          <mxGeometry x="220" y="1130" width="60" height="30" as="geometry" />
        </mxCell>
        <mxCell id="-H-TBqle4YXtb74q-G5v-171" value="" style="endArrow=classic;html=1;rounded=0;exitX=0.75;exitY=1;exitDx=0;exitDy=0;entryX=0.407;entryY=1.067;entryDx=0;entryDy=0;entryPerimeter=0;dashed=1;" edge="1" parent="1" source="-H-TBqle4YXtb74q-G5v-34" target="-H-TBqle4YXtb74q-G5v-31">
          <mxGeometry relative="1" as="geometry">
            <mxPoint x="-230" y="1080" as="sourcePoint" />
            <mxPoint x="-130" y="1080" as="targetPoint" />
            <Array as="points">
              <mxPoint x="-220" y="1070" />
              <mxPoint x="-109" y="1070" />
            </Array>
          </mxGeometry>
        </mxCell>
        <mxCell id="-H-TBqle4YXtb74q-G5v-172" value="" style="shape=message;html=1;outlineConnect=0;" vertex="1" parent="-H-TBqle4YXtb74q-G5v-171">
          <mxGeometry width="20" height="14" relative="1" as="geometry">
            <mxPoint x="-10" y="-7" as="offset" />
          </mxGeometry>
        </mxCell>
        <mxCell id="-H-TBqle4YXtb74q-G5v-173" value="PM assigned task" style="text;html=1;strokeColor=none;fillColor=none;align=center;verticalAlign=middle;whiteSpace=wrap;rounded=0;fontStyle=2" vertex="1" parent="1">
          <mxGeometry x="-210" y="1036" width="60" height="30" as="geometry" />
        </mxCell>
        <mxCell id="-H-TBqle4YXtb74q-G5v-174" value="PM assigned task" style="text;html=1;strokeColor=none;fillColor=none;align=center;verticalAlign=middle;whiteSpace=wrap;rounded=0;fontStyle=3" vertex="1" parent="1">
          <mxGeometry x="-700" y="1250" width="60" height="30" as="geometry" />
        </mxCell>
        <mxCell id="-H-TBqle4YXtb74q-G5v-175" value="" style="endArrow=classic;startArrow=classic;html=1;rounded=0;dashed=1;" edge="1" parent="1">
          <mxGeometry width="50" height="50" relative="1" as="geometry">
            <mxPoint x="-240" y="1330" as="sourcePoint" />
            <mxPoint x="-240" y="900" as="targetPoint" />
            <Array as="points" />
          </mxGeometry>
        </mxCell>
        <mxCell id="-H-TBqle4YXtb74q-G5v-176" value="&lt;b&gt;Head of Team/Stackholder assigned task&lt;/b&gt;" style="text;html=1;strokeColor=none;fillColor=none;align=center;verticalAlign=middle;whiteSpace=wrap;rounded=0;" vertex="1" parent="1">
          <mxGeometry x="-303" y="1410" width="120" height="30" as="geometry" />
        </mxCell>
        <mxCell id="-H-TBqle4YXtb74q-G5v-177" value="" style="endArrow=classic;startArrow=classic;html=1;rounded=0;entryX=0.75;entryY=1;entryDx=0;entryDy=0;dashed=1;exitX=0.5;exitY=0;exitDx=0;exitDy=0;exitPerimeter=0;" edge="1" parent="1" source="-H-TBqle4YXtb74q-G5v-199" target="-H-TBqle4YXtb74q-G5v-31">
          <mxGeometry width="50" height="50" relative="1" as="geometry">
            <mxPoint x="10" y="1460" as="sourcePoint" />
            <mxPoint x="280" y="1470" as="targetPoint" />
            <Array as="points">
              <mxPoint x="415" y="1080" />
              <mxPoint x="-40" y="1080" />
            </Array>
          </mxGeometry>
        </mxCell>
        <mxCell id="-H-TBqle4YXtb74q-G5v-178" value="&lt;b&gt;Head of Team/Stackholder assigned task&lt;/b&gt;" style="text;html=1;strokeColor=none;fillColor=none;align=center;verticalAlign=middle;whiteSpace=wrap;rounded=0;" vertex="1" parent="1">
          <mxGeometry x="350" y="1460" width="120" height="30" as="geometry" />
        </mxCell>
        <mxCell id="-H-TBqle4YXtb74q-G5v-180" value="&lt;b&gt;Confluence &lt;/b&gt;(epic/tasks/requirements description)" style="rounded=1;whiteSpace=wrap;html=1;fillColor=#dae8fc;strokeColor=#6c8ebf;gradientColor=#7ea6e0;" vertex="1" parent="1">
          <mxGeometry x="-580" y="600" width="220" height="70" as="geometry" />
        </mxCell>
        <mxCell id="-H-TBqle4YXtb74q-G5v-182" value="" style="endArrow=classic;html=1;rounded=0;exitX=0.5;exitY=0.5;exitDx=0;exitDy=0;exitPerimeter=0;entryX=0.455;entryY=0;entryDx=0;entryDy=0;entryPerimeter=0;" edge="1" parent="1" source="-H-TBqle4YXtb74q-G5v-9" target="-H-TBqle4YXtb74q-G5v-180">
          <mxGeometry width="50" height="50" relative="1" as="geometry">
            <mxPoint x="-650" y="550" as="sourcePoint" />
            <mxPoint x="-600" y="500" as="targetPoint" />
            <Array as="points">
              <mxPoint x="-480" y="530" />
            </Array>
          </mxGeometry>
        </mxCell>
        <mxCell id="-H-TBqle4YXtb74q-G5v-183" value="&lt;b&gt;Game designer/ Story writter&lt;/b&gt;" style="text;html=1;strokeColor=none;fillColor=none;align=center;verticalAlign=middle;whiteSpace=wrap;rounded=0;fontStyle=2" vertex="1" parent="1">
          <mxGeometry x="-560" y="760" width="190" height="30" as="geometry" />
        </mxCell>
        <mxCell id="-H-TBqle4YXtb74q-G5v-184" value="" style="endArrow=classic;startArrow=classic;html=1;rounded=0;exitX=0.5;exitY=0;exitDx=0;exitDy=0;exitPerimeter=0;" edge="1" parent="1" source="-H-TBqle4YXtb74q-G5v-185">
          <mxGeometry width="50" height="50" relative="1" as="geometry">
            <mxPoint x="-467" y="710" as="sourcePoint" />
            <mxPoint x="-465" y="670" as="targetPoint" />
            <Array as="points" />
          </mxGeometry>
        </mxCell>
        <mxCell id="-H-TBqle4YXtb74q-G5v-185" value="Actor" style="shape=umlActor;verticalLabelPosition=bottom;verticalAlign=top;html=1;outlineConnect=0;noLabel=1;fillColor=#e6d0de;gradientColor=#d5739d;strokeColor=#996185;" vertex="1" parent="1">
          <mxGeometry x="-480" y="710" width="30" height="60" as="geometry" />
        </mxCell>
        <mxCell id="-H-TBqle4YXtb74q-G5v-191" value="" style="endArrow=classic;startArrow=classic;html=1;rounded=0;entryX=0.595;entryY=-0.017;entryDx=0;entryDy=0;entryPerimeter=0;exitX=0.5;exitY=1;exitDx=0;exitDy=0;" edge="1" parent="1" source="-H-TBqle4YXtb74q-G5v-183" target="-H-TBqle4YXtb74q-G5v-34">
          <mxGeometry width="50" height="50" relative="1" as="geometry">
            <mxPoint x="-470" y="820" as="sourcePoint" />
            <mxPoint x="-270" y="780" as="targetPoint" />
            <Array as="points">
              <mxPoint x="-465" y="820" />
              <mxPoint x="-251" y="820" />
            </Array>
          </mxGeometry>
        </mxCell>
        <mxCell id="-H-TBqle4YXtb74q-G5v-198" value="" style="endArrow=classic;startArrow=classic;html=1;rounded=0;exitX=0;exitY=0.5;exitDx=0;exitDy=0;dashed=1;entryX=0.5;entryY=1;entryDx=0;entryDy=0;" edge="1" parent="1">
          <mxGeometry width="50" height="50" relative="1" as="geometry">
            <mxPoint x="-179" y="1520" as="sourcePoint" />
            <mxPoint x="-240" y="1440" as="targetPoint" />
            <Array as="points">
              <mxPoint x="-240" y="1520" />
            </Array>
          </mxGeometry>
        </mxCell>
        <mxCell id="-H-TBqle4YXtb74q-G5v-192" value="Actor" style="shape=umlActor;verticalLabelPosition=bottom;verticalAlign=top;html=1;outlineConnect=0;noLabel=1;fillColor=#e6d0de;gradientColor=#d5739d;strokeColor=#996185;" vertex="1" parent="1">
          <mxGeometry x="-256" y="1340" width="30" height="60" as="geometry" />
        </mxCell>
        <mxCell id="-H-TBqle4YXtb74q-G5v-200" value="" style="endArrow=classic;startArrow=classic;html=1;rounded=0;dashed=1;entryX=0.622;entryY=1.311;entryDx=0;entryDy=0;entryPerimeter=0;" edge="1" parent="1" target="-H-TBqle4YXtb74q-G5v-178">
          <mxGeometry width="50" height="50" relative="1" as="geometry">
            <mxPoint x="20" y="1530" as="sourcePoint" />
            <mxPoint x="490" y="1580" as="targetPoint" />
            <Array as="points">
              <mxPoint x="425" y="1530" />
            </Array>
          </mxGeometry>
        </mxCell>
        <mxCell id="-H-TBqle4YXtb74q-G5v-199" value="Actor" style="shape=umlActor;verticalLabelPosition=bottom;verticalAlign=top;html=1;outlineConnect=0;noLabel=1;fillColor=#e6d0de;gradientColor=#d5739d;strokeColor=#996185;" vertex="1" parent="1">
          <mxGeometry x="400" y="1390" width="30" height="60" as="geometry" />
        </mxCell>
      </root>
    </mxGraphModel>
  </diagram>
</mxfile>
